<?xml version="1.0" standalone="no"?>
<!DOCTYPE svg PUBLIC "-//W3C//DTD SVG 20010904//EN"
 "http://www.w3.org/TR/2001/REC-SVG-20010904/DTD/svg10.dtd">
<svg version="1.0" xmlns="http://www.w3.org/2000/svg"
 width="512.000000pt" height="512.000000pt" viewBox="0 0 512.000000 512.000000"
 preserveAspectRatio="xMidYMid meet">

<g transform="translate(0.000000,512.000000) scale(0.100000,-0.100000)"
fill="#000000" stroke="none">
<path d="M380 4944 c-227 -82 -293 -362 -125 -529 66 -66 125 -90 225 -89 72
0 93 4 136 26 75 39 107 70 145 140 30 57 33 71 34 148 0 100 -24 159 -90 225
-82 82 -222 116 -325 79z m163 -158 c103 -43 128 -177 48 -257 -112 -113 -296
-12 -267 146 18 94 128 150 219 111z"/>
<path d="M1180 4944 c-227 -82 -293 -362 -125 -529 66 -66 125 -90 225 -89 72
0 93 4 136 26 75 39 107 70 145 140 30 57 33 71 34 148 0 100 -24 159 -90 225
-82 82 -222 116 -325 79z m163 -158 c103 -43 128 -177 48 -257 -112 -113 -296
-12 -267 146 18 94 128 150 219 111z"/>
<path d="M1760 4640 l0 -320 80 0 80 0 0 320 0 320 -80 0 -80 0 0 -320z"/>
<path d="M2300 4944 c-227 -82 -293 -362 -125 -529 66 -66 125 -90 225 -89 72
0 93 4 136 26 75 39 107 70 145 140 30 57 33 71 34 148 0 100 -24 159 -90 225
-82 82 -222 116 -325 79z m163 -158 c103 -43 128 -177 48 -257 -112 -113 -296
-12 -267 146 18 94 128 150 219 111z"/>
<path d="M3668 4945 c-144 -24 -310 -92 -428 -176 -74 -52 -192 -170 -245
-244 -54 -76 -109 -183 -141 -277 -47 -139 -54 -220 -54 -650 l0 -397 -848 -3
-848 -3 -76 -37 c-91 -45 -147 -103 -191 -196 l-32 -67 0 -1216 0 -1215 37
-76 c45 -91 103 -147 196 -191 l67 -32 1215 0 1215 0 67 32 c93 44 151 100
196 191 l37 76 0 1215 0 1216 -32 67 c-44 93 -100 151 -191 195 -72 36 -79 37
-204 41 l-129 4 3 417 c4 399 5 418 26 474 34 91 80 164 140 224 219 215 558
214 778 -2 68 -67 105 -125 143 -224 25 -66 25 -67 31 -471 6 -457 4 -447 86
-519 100 -88 238 -80 327 19 24 26 49 66 55 88 19 61 16 760 -3 877 -26 158
-97 329 -188 451 -54 71 -183 196 -249 242 -214 147 -502 210 -760 167z m327
-160 c358 -63 647 -352 710 -710 12 -68 15 -171 15 -457 l0 -369 -25 -24 c-29
-30 -74 -32 -106 -6 l-24 19 -6 399 c-6 444 -7 453 -79 598 -90 183 -245 313
-450 377 -63 19 -96 23 -200 22 -106 0 -137 -4 -202 -26 -208 -69 -374 -222
-454 -418 -49 -120 -54 -180 -54 -601 l0 -389 -80 0 -80 0 0 394 c0 436 7 506
61 646 62 162 191 319 342 418 185 121 409 166 632 127z m-481 -1757 c55 -16
138 -99 154 -154 17 -60 17 -2328 0 -2388 -16 -55 -99 -138 -154 -154 -60 -17
-2328 -17 -2388 0 -55 16 -138 99 -154 154 -17 60 -17 2328 0 2388 15 51 99
137 148 153 53 17 2338 17 2394 1z"/>
<path d="M1787 2708 l-508 -170 4 -457 c4 -418 6 -463 25 -541 58 -242 177
-448 352 -613 53 -50 179 -142 365 -266 156 -105 289 -191 295 -191 6 0 138
85 294 189 305 204 403 286 504 420 99 132 175 298 218 478 14 56 17 148 21
524 l5 457 -514 171 c-282 94 -522 171 -533 170 -11 0 -249 -77 -528 -171z
m978 -141 l430 -144 3 -344 c3 -392 -5 -474 -62 -634 -60 -168 -175 -333 -303
-437 -37 -31 -168 -122 -291 -203 l-222 -148 -249 166 c-281 188 -363 260
-460 408 -64 97 -109 201 -145 334 -20 75 -21 103 -21 469 l0 389 425 143
c234 78 434 143 445 143 11 1 214 -64 450 -142z"/>
<path d="M2214 2462 c-66 -23 -124 -70 -162 -130 -104 -162 -40 -379 135 -459
l53 -24 0 -445 0 -444 80 0 80 0 0 80 0 80 80 0 80 0 0 80 0 80 -80 0 -80 0 0
80 0 80 80 0 80 0 0 80 0 80 -80 0 -80 0 0 124 0 125 53 24 c69 31 123 86 156
156 36 78 37 193 1 266 -32 64 -98 131 -158 157 -66 30 -172 34 -238 10z m169
-156 c103 -43 128 -177 48 -257 -65 -65 -157 -65 -222 0 -124 123 13 325 174
257z"/>
<path d="M380 4064 c-227 -82 -293 -362 -125 -529 66 -66 125 -90 225 -89 72
0 93 4 136 26 75 39 107 70 145 140 30 57 33 71 34 148 0 100 -24 159 -90 225
-82 82 -222 116 -325 79z m163 -158 c103 -43 128 -177 48 -257 -112 -113 -296
-12 -267 146 18 94 128 150 219 111z"/>
<path d="M960 3760 l0 -320 80 0 80 0 0 320 0 320 -80 0 -80 0 0 -320z"/>
<path d="M1280 3760 l0 -320 80 0 80 0 0 320 0 320 -80 0 -80 0 0 -320z"/>
<path d="M1830 4071 c-136 -44 -220 -152 -228 -291 -5 -99 22 -175 87 -240 72
-71 129 -95 231 -95 79 0 90 3 150 36 231 127 224 448 -12 570 -46 24 -180 36
-228 20z m153 -165 c103 -43 128 -177 48 -257 -65 -66 -155 -65 -221 1 -124
124 11 324 173 256z"/>
<path d="M2400 3760 l0 -320 80 0 80 0 0 320 0 320 -80 0 -80 0 0 -320z"/>
</g>
</svg>
